<?xml version="1.0" encoding="utf-8"?>
<!-- Generator: Adobe Illustrator 22.0.1, SVG Export Plug-In . SVG Version: 6.00 Build 0)  -->
<svg version="1.1" id="Layer_1" xmlns="http://www.w3.org/2000/svg" xmlns:xlink="http://www.w3.org/1999/xlink" x="0px" y="0px"
	 viewBox="0 0 800 450" style="enable-background:new 0 0 800 450;" xml:space="preserve">
<style type="text/css">
	.st0{clip-path:url(#SVGID_2_);fill:#E9F0F4;}
	.st1{clip-path:url(#SVGID_2_);fill:#0363A0;}
	.st2{clip-path:url(#SVGID_2_);fill:#C1D2E5;}
	.st3{clip-path:url(#SVGID_2_);fill:#93BCD8;}
	.st4{clip-path:url(#SVGID_2_);fill:#085285;}
	.st5{clip-path:url(#SVGID_2_);}
	.st6{fill:#0363A0;}
	.st7{fill:#93BCD8;}
	.st8{fill:#085285;}
	.st9{fill:#C1D2E5;}
	.st10{fill:#C03B1A;}
	.st11{fill:#FFFFFF;}
	.st12{clip-path:url(#SVGID_2_);fill:#FFFFFF;}
	.st13{clip-path:url(#SVGID_4_);fill:#A7A9AC;}
	.st14{clip-path:url(#SVGID_4_);}
	.st15{fill:#58595B;}
	.st16{fill:#808285;}
	.st17{clip-path:url(#SVGID_4_);fill:#FFFFFF;}
	.st18{clip-path:url(#SVGID_4_);fill:#808285;}
	.st19{clip-path:url(#SVGID_6_);fill:#A7A9AC;}
	.st20{clip-path:url(#SVGID_6_);}
	.st21{clip-path:url(#SVGID_6_);fill:#FFFFFF;}
	.st22{clip-path:url(#SVGID_6_);fill:#808285;}
	.st23{clip-path:url(#SVGID_8_);fill:#A7A9AC;}
	.st24{clip-path:url(#SVGID_8_);}
	.st25{clip-path:url(#SVGID_8_);fill:#FFFFFF;}
	.st26{clip-path:url(#SVGID_8_);fill:#808285;}
	.st27{clip-path:url(#SVGID_10_);fill:#A7A9AC;}
	.st28{clip-path:url(#SVGID_10_);fill:#808285;}
	.st29{clip-path:url(#SVGID_10_);fill:#58595B;}
	.st30{clip-path:url(#SVGID_10_);}
	.st31{clip-path:url(#SVGID_12_);fill:#A7A9AC;}
	.st32{clip-path:url(#SVGID_12_);fill:#808285;}
	.st33{clip-path:url(#SVGID_12_);fill:#58595B;}
	.st34{clip-path:url(#SVGID_12_);}
	.st35{opacity:0.79;fill:#A52A2A;}
	.st36{clip-path:url(#SVGID_14_);fill:#A7A9AC;}
	.st37{clip-path:url(#SVGID_14_);fill:#808285;}
	.st38{clip-path:url(#SVGID_14_);fill:#58595B;}
	.st39{clip-path:url(#SVGID_14_);}
	.st40{opacity:0.6;fill:#4169E1;}
</style>
<g>
	<defs>
		<rect id="SVGID_7_" width="800" height="450"/>
	</defs>
	<clipPath id="SVGID_2_">
		<use xlink:href="#SVGID_7_"  style="overflow:visible;"/>
	</clipPath>
	<rect style="clip-path:url(#SVGID_2_);fill:#A7A9AC;" width="800" height="450"/>
	<g class="st5">
		<g>
			<rect x="193.5" y="99.4" width="3.3" height="304.7"/>
			<rect x="165.1" y="99.4" width="3.3" height="304.7"/>
			<rect x="167.6" y="129" width="26.9" height="2.6"/>
			<rect x="167.6" y="159" width="26.9" height="2.6"/>
			<rect x="167.6" y="188.9" width="26.9" height="2.6"/>
			<rect x="167.6" y="218.8" width="26.9" height="2.6"/>
			<rect x="167.6" y="248.8" width="26.9" height="2.6"/>
			<rect x="167.6" y="278.7" width="26.9" height="2.6"/>
			<rect x="167.6" y="308.6" width="26.9" height="2.6"/>
			<rect x="167.6" y="338.6" width="26.9" height="2.6"/>
			<rect x="167.6" y="368.5" width="26.9" height="2.6"/>
			<rect x="167.6" y="398.4" width="26.9" height="2.6"/>
			<polygon points="193.4,130 195,128.5 168.8,99.8 167.2,101.3 			"/>
			<polygon points="168.8,130 167.2,128.5 193.4,99.8 195,101.3 			"/>
			<polygon points="193.4,160.5 195,159 168.8,130.4 167.2,131.8 			"/>
			<polygon points="168.8,160.5 167.2,159 193.4,130.4 195,131.8 			"/>
			<polygon points="193.4,190.4 195,189 168.8,160.3 167.2,161.7 			"/>
			<polygon points="168.8,190.4 167.2,189 193.4,160.3 195,161.7 			"/>
			<polygon points="193.4,220.3 195,218.9 168.8,190.2 167.2,191.7 			"/>
			<polygon points="168.8,220.3 167.2,218.9 193.4,190.2 195,191.7 			"/>
			<polygon points="193.4,250.3 195,248.8 168.8,220.2 167.2,221.6 			"/>
			<polygon points="168.8,250.3 167.2,248.8 193.4,220.2 195,221.6 			"/>
			<polygon points="193.4,280.2 195,278.8 168.8,250.1 167.2,251.5 			"/>
			<polygon points="168.8,280.2 167.2,278.8 193.4,250.1 195,251.5 			"/>
			<polygon points="193.4,310.1 195,308.7 168.8,280 167.2,281.5 			"/>
			<polygon points="168.8,310.1 167.2,308.7 193.4,280 195,281.5 			"/>
			<polygon points="193.4,340.1 195,338.6 168.8,310 167.2,311.4 			"/>
			<polygon points="168.8,340.1 167.2,338.6 193.4,310 195,311.4 			"/>
			<polygon points="193.4,370 195,368.6 168.8,339.9 167.2,341.3 			"/>
			<polygon points="168.8,370 167.2,368.6 193.4,339.9 195,341.3 			"/>
			<polygon points="193.4,399.9 195,398.5 168.8,369.8 167.2,371.3 			"/>
			<polygon points="168.8,399.9 167.2,398.5 193.4,369.8 195,371.3 			"/>
			<rect x="80.7" y="75" width="287" height="2.7"/>
			<polygon points="296,77.6 297.3,75.3 188.1,13.1 186.7,15.4 			"/>
			<polygon points="407,100.4 408.4,98.1 367.6,74.8 366.2,77.1 			"/>
			<polygon points="189.9,15.2 188.4,13 97.3,75.3 98.8,77.5 			"/>
			<polygon points="190.7,15.6 189,15.8 197.4,76.5 199.1,76.3 			"/>
			<polygon points="185.8,15.6 187.5,15.8 179.1,76.5 177.4,76.3 			"/>
			<rect x="87.1" y="97.8" width="321.4" height="2.7"/>
			<rect x="117.8" y="76.9" width="2.2" height="21.6"/>
			<rect x="142.6" y="76.9" width="2.2" height="21.6"/>
			<rect x="167.4" y="76.9" width="2.2" height="21.6"/>
			<rect x="192.1" y="76.9" width="2.2" height="21.6"/>
			<rect x="216.9" y="76.9" width="2.2" height="21.6"/>
			<rect x="179.4" y="67.2" width="17.7" height="2.1"/>
			<rect x="180.4" y="56.3" width="15.6" height="2.1"/>
			<rect x="182.6" y="45.5" width="11.3" height="2.1"/>
			<rect x="183.4" y="34.7" width="9.6" height="2.1"/>
			<rect x="185.1" y="23.8" width="6.3" height="2.1"/>
			<rect x="241.7" y="76.9" width="2.2" height="21.6"/>
			<rect x="266.5" y="76.9" width="2.2" height="21.6"/>
			<rect x="291.2" y="76.9" width="2.2" height="21.6"/>
			<rect x="316" y="76.9" width="2.2" height="21.6"/>
			<rect x="340.8" y="76.9" width="2.2" height="21.6"/>
			<polygon points="118.6,77.7 117.4,76.4 93.7,97.5 94.9,98.8 			"/>
			<polygon points="118.6,97.5 117.4,98.8 93.7,77.7 94.9,76.4 			"/>
			<polygon points="143.9,77.7 142.7,76.4 118.9,97.5 120.1,98.8 			"/>
			<polygon points="143.9,97.5 142.7,98.8 118.9,77.7 120.1,76.4 			"/>
			<polygon points="168.6,77.7 167.4,76.4 143.7,97.5 144.9,98.8 			"/>
			<polygon points="168.6,97.5 167.4,98.8 143.7,77.7 144.9,76.4 			"/>
			<polygon points="193.4,77.7 192.2,76.4 168.5,97.5 169.7,98.8 			"/>
			<polygon points="193.4,97.5 192.2,98.8 168.5,77.7 169.7,76.4 			"/>
			<polygon points="218.2,77.7 217,76.4 193.2,97.5 194.4,98.8 			"/>
			<polygon points="218.2,97.5 217,98.8 193.2,77.7 194.4,76.4 			"/>
			<polygon points="242.9,77.7 241.7,76.4 218,97.5 219.2,98.8 			"/>
			<polygon points="242.9,97.5 241.7,98.8 218,77.7 219.2,76.4 			"/>
			<polygon points="267.7,77.7 266.5,76.4 242.8,97.5 244,98.8 			"/>
			<polygon points="267.7,97.5 266.5,98.8 242.8,77.7 244,76.4 			"/>
			<polygon points="292.5,77.7 291.3,76.4 267.5,97.5 268.7,98.8 			"/>
			<polygon points="292.5,97.5 291.3,98.8 267.5,77.7 268.7,76.4 			"/>
			<polygon points="317.2,77.7 316,76.4 292.3,97.5 293.5,98.8 			"/>
			<polygon points="317.2,97.5 316,98.8 292.3,77.7 293.5,76.4 			"/>
			<polygon points="342,77.7 340.8,76.4 317.1,97.5 318.3,98.8 			"/>
			<polygon points="342,97.5 340.8,98.8 317.1,77.7 318.3,76.4 			"/>
			<rect x="365.5" y="76.9" width="2.2" height="21.6"/>
			<polygon points="366.8,77.7 365.6,76.4 341.8,97.5 343,98.8 			"/>
			<polygon points="366.8,97.5 365.6,98.8 341.8,77.7 343,76.4 			"/>
			<g>
				<rect x="84.1" y="77" width="16.6" height="40.4"/>
			</g>
			<g>
				<rect x="76.5" y="64.6" width="15.3" height="24.6"/>
			</g>
			<rect x="141.7" y="404.1" width="76.1" height="20.4"/>
			<g>
				<rect x="99.6" y="423.6" width="160.3" height="18.4"/>
			</g>
		</g>
	</g>
	<g class="st5">
		<polygon class="st15" points="28.2,145.2 158.3,145.2 119.6,217.2 -10.5,217.2 		"/>
		<polygon class="st16" points="119.6,535.4 202.6,535.4 202.6,217.2 158.3,145.2 119.6,217.2 		"/>
		<rect x="-10.5" y="217.2" width="130.1" height="318.2"/>
		<rect x="6.1" y="239.3" class="st16" width="33.2" height="33.2"/>
		<rect x="58.7" y="239.3" width="33.2" height="33.2"/>
		<rect x="150" y="239.3" width="24.9" height="33.2"/>
		<rect x="6.1" y="289.1" class="st16" width="33.2" height="33.2"/>
		<rect x="58.7" y="289.1" class="st16" width="33.2" height="33.2"/>
		<rect x="150" y="289.1" width="24.9" height="33.2"/>
		<rect x="6.1" y="338.9" width="33.2" height="33.2"/>
		<rect x="58.7" y="338.9" class="st16" width="33.2" height="33.2"/>
		<rect x="150" y="338.9" width="24.9" height="33.2"/>
		<rect x="6.1" y="388.8" class="st16" width="33.2" height="33.2"/>
		<rect x="58.7" y="388.8" class="st16" width="33.2" height="33.2"/>
		<rect x="150" y="388.8" width="24.9" height="33.2"/>
	</g>
	<g class="st5">
		<rect x="333.8" y="283" class="st15" width="83" height="318.2"/>
		<rect x="202.5" y="283" class="st11" width="131.3" height="318.2"/>
		<rect x="220.4" y="305.1" class="st16" width="33.2" height="33.2"/>
		<rect x="273" y="305.1" class="st16" width="33.2" height="33.2"/>
		<rect x="364.3" y="305.1" width="24.9" height="33.2"/>
		<rect x="220.4" y="355" class="st16" width="33.2" height="33.2"/>
		<rect x="273" y="355" class="st16" width="33.2" height="33.2"/>
		<rect x="364.3" y="355" width="24.9" height="33.2"/>
		<rect x="220.4" y="404.8" class="st16" width="33.2" height="33.2"/>
		<rect x="273" y="404.8" width="33.2" height="33.2"/>
		<rect x="364.3" y="404.8" width="24.9" height="33.2"/>
	</g>
	<rect x="415" y="306.2" class="st5" width="145.6" height="196"/>
	<rect x="556.6" y="240.5" class="st12" width="145.6" height="260.6"/>
	<rect x="701.9" y="307.9" style="clip-path:url(#SVGID_2_);fill:#808285;" width="145.6" height="186.4"/>
	<g class="st5">
		<g>
			<rect x="598.2" y="161.6" width="4.8" height="453.3"/>
			<rect x="639.8" y="161.6" width="4.8" height="453.3"/>
			<rect x="601.6" y="205.6" width="39.4" height="3.9"/>
			<rect x="601.6" y="250.2" width="39.4" height="3.9"/>
			<rect x="601.6" y="294.7" width="39.4" height="3.9"/>
			<rect x="601.6" y="339.2" width="39.4" height="3.9"/>
			<rect x="601.6" y="383.7" width="39.4" height="3.9"/>
			<rect x="601.6" y="428.3" width="39.4" height="3.9"/>
			<rect x="592.4" y="183" transform="matrix(0.6696 -0.7427 0.7427 0.6696 68.1115 522.3237)" width="57.4" height="3.2"/>
			<rect x="619.5" y="155.9" transform="matrix(0.7427 -0.6696 0.6696 0.7427 36.193 463.4083)" width="3.2" height="57.4"/>
			<rect x="592.4" y="228.4" transform="matrix(0.6696 -0.7427 0.7427 0.6696 34.3891 537.3226)" width="57.4" height="3.2"/>
			<rect x="619.5" y="201.3" transform="matrix(0.7427 -0.6696 0.6696 0.7427 5.7921 475.0913)" width="3.2" height="57.4"/>
			<rect x="592.4" y="272.9" transform="matrix(0.6696 -0.7427 0.7427 0.6696 1.3201 552.0355)" width="57.4" height="3.2"/>
			<rect x="619.5" y="245.8" transform="matrix(0.7427 -0.6696 0.6696 0.7427 -24.023 486.5447)" width="3.2" height="57.4"/>
			<rect x="592.4" y="317.4" transform="matrix(0.6696 -0.7427 0.7427 0.6696 -31.7499 566.7466)" width="57.4" height="3.2"/>
			<rect x="619.5" y="290.3" transform="matrix(0.7427 -0.6696 0.6696 0.7427 -53.8373 498.0001)" width="3.2" height="57.4"/>
			<rect x="592.4" y="362" transform="matrix(0.6696 -0.7427 0.7427 0.6696 -64.8199 581.4576)" width="57.4" height="3.2"/>
			<rect x="619.5" y="334.9" transform="matrix(0.7427 -0.6696 0.6696 0.7427 -83.6516 509.4555)" width="3.2" height="57.4"/>
			<rect x="592.4" y="406.5" transform="matrix(0.6696 -0.7427 0.7427 0.6696 -97.8929 596.1572)" width="57.4" height="3.2"/>
			<rect x="619.5" y="379.4" transform="matrix(0.7427 -0.6696 0.6696 0.7427 -113.4641 520.9227)" width="3.2" height="57.4"/>
			<rect x="592.4" y="451" transform="matrix(0.6696 -0.7427 0.7427 0.6696 -130.9604 610.8773)" width="57.4" height="3.2"/>
			<rect x="619.5" y="423.9" transform="matrix(0.7427 -0.6696 0.6696 0.7427 -143.28 532.3687)" width="3.2" height="57.4"/>
			<rect x="347.4" y="125.2" width="421.1" height="3.9"/>
			<rect x="439.3" y="79.2" transform="matrix(0.866 -0.5 0.5 0.866 30.6478 276.7668)" width="185.1" height="3.9"/>
			<rect x="284" y="142.1" transform="matrix(0.866 -0.5 0.5 0.866 -29.3285 178.5923)" width="69.1" height="3.9"/>
			<rect x="674.2" y="-0.3" transform="matrix(0.5702 -0.8215 0.8215 0.5702 224.0641 590.3333)" width="3.9" height="162.6"/>
			<rect x="556.7" y="81" transform="matrix(0.1351 -0.9908 0.9908 0.1351 439.3801 667.7966)" width="91" height="2.5"/>
			<rect x="618" y="36.7" transform="matrix(0.9908 -0.1351 0.1351 0.9908 -5.4294 84.4373)" width="2.5" height="91"/>
			<rect x="287.5" y="159.2" width="471.6" height="3.9"/>
			<rect x="710.8" y="128" width="3.2" height="32.2"/>
			<rect x="674.5" y="128" width="3.2" height="32.2"/>
			<rect x="638.1" y="128" width="3.2" height="32.2"/>
			<rect x="601.8" y="128" width="3.2" height="32.2"/>
			<rect x="565.4" y="128" width="3.2" height="32.2"/>
			<rect x="597.7" y="113.6" width="26" height="3.2"/>
			<rect x="599.3" y="97.5" width="23" height="3.2"/>
			<rect x="602.5" y="81.4" width="16.5" height="3.2"/>
			<rect x="603.7" y="65.3" width="14.1" height="3.2"/>
			<rect x="606.1" y="49.1" width="9.3" height="3.2"/>
			<rect x="529.1" y="128" width="3.2" height="32.2"/>
			<rect x="492.7" y="128" width="3.2" height="32.2"/>
			<rect x="456.4" y="128" width="3.2" height="32.2"/>
			<rect x="420.1" y="128" width="3.2" height="32.2"/>
			<rect x="383.7" y="128" width="3.2" height="32.2"/>
			<rect x="729.9" y="120.5" transform="matrix(0.6696 -0.7427 0.7427 0.6696 134.6533 590.6274)" width="2.6" height="46.9"/>
			<rect x="707.7" y="142.7" transform="matrix(0.7427 -0.6696 0.6696 0.7427 91.723 526.6474)" width="46.9" height="2.6"/>
			<rect x="692.8" y="120.5" transform="matrix(0.6696 -0.7427 0.7427 0.6696 122.4102 563.1038)" width="2.6" height="46.9"/>
			<rect x="670.7" y="142.7" transform="matrix(0.7427 -0.6696 0.6696 0.7427 82.1863 501.8286)" width="46.9" height="2.6"/>
			<rect x="656.5" y="120.5" transform="matrix(0.6696 -0.7427 0.7427 0.6696 110.4019 536.1096)" width="2.6" height="46.9"/>
			<rect x="634.3" y="142.7" transform="matrix(0.7427 -0.6696 0.6696 0.7427 72.8353 477.4917)" width="46.9" height="2.6"/>
			<rect x="620.1" y="120.5" transform="matrix(0.6696 -0.7427 0.7427 0.6696 98.3936 509.1154)" width="2.6" height="46.9"/>
			<rect x="598" y="142.7" transform="matrix(0.7427 -0.6696 0.6696 0.7427 63.4843 453.1548)" width="46.9" height="2.6"/>
			<rect x="583.8" y="120.5" transform="matrix(0.6696 -0.7427 0.7427 0.6696 86.3787 482.1114)" width="2.6" height="46.9"/>
			<rect x="561.6" y="142.7" transform="matrix(0.7427 -0.6696 0.6696 0.7427 54.1389 428.8283)" width="46.9" height="2.6"/>
			<rect x="547.4" y="120.5" transform="matrix(0.6696 -0.7427 0.7427 0.6696 74.377 455.127)" width="2.6" height="46.9"/>
			<rect x="525.3" y="142.7" transform="matrix(0.7427 -0.6696 0.6696 0.7427 44.7823 404.481)" width="46.9" height="2.6"/>
			<rect x="511.1" y="120.5" transform="matrix(0.6696 -0.7427 0.7427 0.6696 62.3687 428.1328)" width="2.6" height="46.9"/>
			<rect x="489" y="142.7" transform="matrix(0.7427 -0.6696 0.6696 0.7427 35.4314 380.1441)" width="46.9" height="2.6"/>
			<rect x="474.7" y="120.5" transform="matrix(0.6696 -0.7427 0.7427 0.6696 50.3604 401.1386)" width="2.6" height="46.9"/>
			<rect x="452.6" y="142.7" transform="matrix(0.7427 -0.6696 0.6696 0.7427 26.0804 355.8072)" width="46.9" height="2.6"/>
			<rect x="438.4" y="120.5" transform="matrix(0.6696 -0.7427 0.7427 0.6696 38.3521 374.1444)" width="2.6" height="46.9"/>
			<rect x="416.3" y="142.7" transform="matrix(0.7427 -0.6696 0.6696 0.7427 16.7294 331.4703)" width="46.9" height="2.6"/>
			<rect x="402" y="120.5" transform="matrix(0.6696 -0.7427 0.7427 0.6696 26.3438 347.1502)" width="2.6" height="46.9"/>
			<rect x="379.9" y="142.7" transform="matrix(0.7427 -0.6696 0.6696 0.7427 7.3784 307.1334)" width="46.9" height="2.6"/>
			<rect x="347.4" y="128" width="3.2" height="32.2"/>
			<rect x="365.7" y="120.5" transform="matrix(0.6696 -0.7427 0.7427 0.6696 14.3355 320.156)" width="2.6" height="46.9"/>
			<rect x="343.6" y="142.7" transform="matrix(0.7427 -0.6696 0.6696 0.7427 -1.9726 282.7965)" width="46.9" height="2.6"/>
			<g>
				<rect x="739.1" y="128.3" width="24.3" height="60.1"/>
			</g>
			<g>
				<rect x="752.2" y="109.9" width="22.4" height="36.6"/>
			</g>
		</g>
	</g>
</g>
</svg>
