<svg id="Group_172" data-name="Group 172" xmlns="http://www.w3.org/2000/svg" width="260.42" height="106.705" viewBox="0 0 260.42 106.705">
  <g id="Group_171" data-name="Group 171" transform="translate(96.432 39.512)">
    <g id="Group_170" data-name="Group 170" transform="translate(-96.432 -39.512)">
      <g id="Group_169" data-name="Group 169">
        <g id="Group_168" data-name="Group 168">
          <path id="Path_22" data-name="Path 22" d="M265.785,141.54H270.3c3.343,0,4.974,1.313,4.974,3.721a3.16,3.16,0,0,1-1.612,2.726v.039a3.6,3.6,0,0,1,2.627,3.363c0,2.488-1.453,4.218-5.392,4.218h-5.114Zm4.278,5.93c1.752,0,2.508-.457,2.508-1.87,0-1.453-.936-1.97-2.746-1.97h-1.313v3.84Zm.438,5.989c1.87,0,3.064-.478,3.064-1.989,0-1.652-1.234-2.07-3.442-2.07h-1.612v4.059Z" transform="translate(-171.165 -97.613)" fill="#15435d"/>
          <path id="Path_23" data-name="Path 23" d="M282.749,150.2V141.54h2.765v8.536c0,2.487,1.354,3.522,3.443,3.522,2.149,0,3.462-1.134,3.462-3.96v-8.1h2.666V149.7c0,4.756-3.223,6.169-6.128,6.169C285.913,155.867,282.749,154.573,282.749,150.2Z" transform="translate(-174.999 -97.613)" fill="#15435d"/>
          <path id="Path_24" data-name="Path 24" d="M303.183,141.54h4.557c4.735,0,8.059,2.209,8.059,6.984,0,4.895-3.025,7.084-7.94,7.084h-4.676Zm4.9,11.919c3.382,0,4.994-1.632,4.994-4.735,0-3.383-1.87-5.034-5.392-5.034H305.87v9.769Z" transform="translate(-179.617 -97.613)" fill="#15435d"/>
          <path id="Path_25" data-name="Path 25" d="M325.485,141.54h3.522l4.875,14.068h-2.826l-1.552-4.556H324.45l-1.731,4.556h-2.726Zm3.362,7.5-1.711-5.771-1.93,5.771Z" transform="translate(-183.417 -97.613)" fill="#15435d"/>
          <path id="Path_26" data-name="Path 26" d="M336.983,141.54h2.885l3.86,12.019,4.478-12.019h2.745l-5.491,14.068H341.9Z" transform="translate(-187.257 -97.613)" fill="#15435d"/>
          <path id="Path_27" data-name="Path 27" d="M359.105,140.372h3.522L367.5,154.44h-2.826l-1.552-4.556H358.07l-1.731,4.556h-2.726Zm-.517-2.587,4.994-1.413.518,2.149-5.094,1.094Zm3.88,10.089-1.711-5.771-1.93,5.771Z" transform="translate(-191.015 -96.445)" fill="#15435d"/>
          <path id="Path_28" data-name="Path 28" d="M381.22,153l-1.97-2.587a7.469,7.469,0,0,1-.975.06H376.9v5.133h-2.725V141.54h5.133c2.985,0,5.094,1.392,5.094,4.417a4.068,4.068,0,0,1-2.407,3.82l1.731,2.149a5.294,5.294,0,0,0,3,1.83l-.6,2.09A6.59,6.59,0,0,1,381.22,153Zm-2.825-4.517c2.069,0,3.2-.776,3.2-2.427,0-1.711-.8-2.368-2.726-2.368H376.9v4.795Z" transform="translate(-195.663 -97.613)" fill="#15435d"/>
          <path id="Path_29" data-name="Path 29" d="M393.017,141.54h2.706v14.068h-2.706Z" transform="translate(-199.921 -97.613)" fill="#15435d"/>
          <path id="Path_30" data-name="Path 30" d="M264.885,182.462c0-4.4,2.945-7.2,7.263-7.2,4.537,0,6.825,3.144,6.825,7.243,0,4.3-2.687,7.263-7.2,7.263C267.392,189.765,264.885,186.76,264.885,182.462Zm12.457.02c0-3.343-1.91-5.871-5.373-5.871-3.621,0-5.452,2.528-5.452,5.83,0,3.2,1.771,5.97,5.313,5.97C275.571,188.412,277.342,185.825,277.342,182.482Zm-8.775-8.974,1.154-1.154,1.135,1.154-1.135,1.154Zm4.238,0,1.134-1.154,1.155,1.154-1.155,1.154Z" transform="translate(-170.962 -104.577)" fill="#15435d"/>
          <path id="Path_31" data-name="Path 31" d="M287.4,176.365h2.348l7.183,12.674-.06-1.751V176.365h1.672v14.067h-2.567l-7.024-12.5.08,1.453v11.043H287.4Z" transform="translate(-176.051 -105.484)" fill="#15435d"/>
          <path id="Path_32" data-name="Path 32" d="M307.5,176.365h1.632v14.067H307.5Zm2.189,6.745v-.358l5.532-6.387h2.089l-5.85,6.506,6.228,7.561h-2.149Z" transform="translate(-180.594 -105.484)" fill="#15435d"/>
          <path id="Path_33" data-name="Path 33" d="M321.664,183.311c0-4.4,2.945-7.2,7.263-7.2,4.536,0,6.825,3.144,6.825,7.243,0,4.3-2.687,7.263-7.2,7.263C324.172,190.613,321.664,187.608,321.664,183.311Zm12.457.02c0-3.343-1.91-5.871-5.372-5.871-3.621,0-5.452,2.528-5.452,5.83,0,3.2,1.771,5.97,5.313,5.97C332.35,189.26,334.121,186.673,334.121,183.331Z" transform="translate(-183.795 -105.426)" fill="#15435d"/>
          <path id="Path_34" data-name="Path 34" d="M351.663,188.5l-2.607-3.761a8.73,8.73,0,0,1-1.313.1h-1.91v5.591h-1.652V176.365h4.6c2.686,0,4.556,1.273,4.556,4.118a3.907,3.907,0,0,1-2.646,3.861l2.189,3.124a4.7,4.7,0,0,0,2.766,1.89l-.359,1.293A4.948,4.948,0,0,1,351.663,188.5Zm-3.8-5.034c2.189,0,3.741-.656,3.741-2.865,0-2.149-1.115-2.9-3.264-2.9h-2.507v5.77Z" transform="translate(-188.884 -105.484)" fill="#15435d"/>
          <path id="Path_35" data-name="Path 35" d="M362.225,176.365h2.388l4.656,13.092,5.173-13.092h2.308v14.067h-1.632V180.364l.06-2.169-4.8,12.237h-2.348l-4.3-12.257.119,2.228v10.029h-1.632Z" transform="translate(-192.962 -105.484)" fill="#15435d"/>
          <path id="Path_36" data-name="Path 36" d="M389.786,175.342H392l5.074,14.067h-1.751l-1.851-5.253H387.9l-2.07,5.253h-1.652Zm3.224,7.5-2.189-6.348-2.408,6.348Zm-3.841-9.412,4.4-1.592.458,1.413-4.5,1.293Z" transform="translate(-197.923 -104.461)" fill="#15435d"/>
          <path id="Path_37" data-name="Path 37" d="M403.942,176.365h2.348l7.183,12.674-.06-1.751V176.365h1.672v14.067h-2.567l-7.024-12.5.079,1.453v11.043h-1.631Z" transform="translate(-202.39 -105.484)" fill="#15435d"/>
          <path id="Path_38" data-name="Path 38" d="M425.913,185.1l-4.6-8.734h1.831l3.641,7.282,3.88-7.282h1.771l-4.895,8.734v5.333h-1.632Z" transform="translate(-206.317 -105.484)" fill="#15435d"/>
          <path id="Path_39" data-name="Path 39" d="M436.559,189.02l7.422-11.242h-6.9v-1.413h8.755v1.293l-7.5,11.361h7.919v1.413h-9.69Z" transform="translate(-209.762 -105.484)" fill="#15435d"/>
          <path id="Path_40" data-name="Path 40" d="M455.766,176.365h2.209l5.074,14.067H461.3l-1.851-5.253h-5.571l-2.07,5.253h-1.652Zm3.224,7.5-2.189-6.348-2.408,6.348Z" transform="translate(-212.835 -105.484)" fill="#15435d"/>
          <path id="Path_41" data-name="Path 41" d="M470.27,177.757h-4.795v-1.392h11.242v1.392h-4.8v12.675H470.27Z" transform="translate(-216.297 -105.484)" fill="#15435d"/>
          <path id="Path_42" data-name="Path 42" d="M175.446,87.745v7.044a2.018,2.018,0,0,0,2.63,1.919c6.266-1.977,10.242,3.745,16.116,3.745,6.084,0,9.871-4.465,11.614-7.186a.976.976,0,0,0-1.039-1.472c-11.423,2.452-12.521-7.01-23.073-7.01a13.636,13.636,0,0,0-5,1.1A2.014,2.014,0,0,0,175.446,87.745Z" transform="translate(-150.748 -84.786)" fill="#15435d"/>
          <path id="Path_43" data-name="Path 43" d="M193.6,187.009l-17.97,11.436a1.8,1.8,0,0,1-1.932,0l-17.969-11.436a1.8,1.8,0,0,1-.834-1.518v-7.336a1.8,1.8,0,0,0-1.8-1.8h-7.758a1.8,1.8,0,0,0-1.8,1.8v13.57a1.8,1.8,0,0,0,.833,1.518l29.326,18.662a1.8,1.8,0,0,0,1.932,0l29.326-18.662a1.8,1.8,0,0,0,.834-1.518v-13.57a1.8,1.8,0,0,0-1.8-1.8h-7.758a1.8,1.8,0,0,0-1.8,1.8v7.336A1.8,1.8,0,0,1,193.6,187.009Z" transform="translate(-143.535 -105.482)" fill="#c3ddb2"/>
          <path id="Path_44" data-name="Path 44" d="M205.784,126.826V114.078a1.8,1.8,0,0,0-1.8-1.8H195.11a1.8,1.8,0,0,0-1.8,1.8v10.95a1.8,1.8,0,0,1-1.8,1.8h-8.593a1.8,1.8,0,0,1-1.8-1.8v-10.95a1.8,1.8,0,0,0-1.8-1.8h-9.086a1.8,1.8,0,0,0-1.8,1.8v10.95a1.8,1.8,0,0,1-1.8,1.8h-8.594a1.8,1.8,0,0,1-1.8-1.8v-10.95a1.8,1.8,0,0,0-1.8-1.8h-9.111a1.8,1.8,0,0,0-1.8,1.8v12.748h0v20.245a1.8,1.8,0,0,0,1.8,1.8h7.758a1.8,1.8,0,0,0,1.8-1.8v-7.09a1.8,1.8,0,0,1,1.8-1.8h35.939a1.8,1.8,0,0,1,1.8,1.8v7.09a1.8,1.8,0,0,0,1.8,1.8h7.758a1.8,1.8,0,0,0,1.8-1.8V126.826Z" transform="translate(-143.535 -91)" fill="#c3ddb2"/>
        </g>
      </g>
    </g>
  </g>
</svg>
