<?xml version="1.0" encoding="utf-8"?>
<!-- Generator: Adobe Illustrator 22.0.1, SVG Export Plug-In . SVG Version: 6.00 Build 0)  -->
<svg version="1.1" id="Layer_1" xmlns="http://www.w3.org/2000/svg" xmlns:xlink="http://www.w3.org/1999/xlink" x="0px" y="0px"
	 viewBox="0 0 800 450" style="enable-background:new 0 0 800 450;" xml:space="preserve">
<style type="text/css">
	.st0{clip-path:url(#SVGID_2_);fill:#E9F0F4;}
	.st1{clip-path:url(#SVGID_2_);fill:#0363A0;}
	.st2{clip-path:url(#SVGID_2_);fill:#C1D2E5;}
	.st3{clip-path:url(#SVGID_2_);fill:#93BCD8;}
	.st4{clip-path:url(#SVGID_2_);fill:#085285;}
	.st5{clip-path:url(#SVGID_2_);}
	.st6{fill:#0363A0;}
	.st7{fill:#93BCD8;}
	.st8{fill:#085285;}
	.st9{fill:#C1D2E5;}
	.st10{fill:#C03B1A;}
	.st11{fill:#FFFFFF;}
	.st12{clip-path:url(#SVGID_2_);fill:#FFFFFF;}
	.st13{clip-path:url(#SVGID_4_);fill:#A7A9AC;}
	.st14{clip-path:url(#SVGID_4_);}
	.st15{fill:#58595B;}
	.st16{fill:#808285;}
	.st17{clip-path:url(#SVGID_4_);fill:#FFFFFF;}
	.st18{clip-path:url(#SVGID_4_);fill:#808285;}
	.st19{clip-path:url(#SVGID_6_);fill:#A7A9AC;}
	.st20{clip-path:url(#SVGID_6_);}
	.st21{clip-path:url(#SVGID_6_);fill:#FFFFFF;}
	.st22{clip-path:url(#SVGID_6_);fill:#808285;}
	.st23{clip-path:url(#SVGID_8_);fill:#A7A9AC;}
	.st24{clip-path:url(#SVGID_8_);}
	.st25{clip-path:url(#SVGID_8_);fill:#FFFFFF;}
	.st26{clip-path:url(#SVGID_8_);fill:#808285;}
	.st27{clip-path:url(#SVGID_10_);fill:#A7A9AC;}
	.st28{clip-path:url(#SVGID_10_);fill:#808285;}
	.st29{clip-path:url(#SVGID_10_);fill:#58595B;}
	.st30{clip-path:url(#SVGID_10_);}
	.st31{clip-path:url(#SVGID_12_);fill:#A7A9AC;}
	.st32{clip-path:url(#SVGID_12_);fill:#808285;}
	.st33{clip-path:url(#SVGID_12_);fill:#58595B;}
	.st34{clip-path:url(#SVGID_12_);}
	.st35{opacity:0.79;fill:#A52A2A;}
	.st36{clip-path:url(#SVGID_14_);fill:#A7A9AC;}
	.st37{clip-path:url(#SVGID_14_);fill:#808285;}
	.st38{clip-path:url(#SVGID_14_);fill:#58595B;}
	.st39{clip-path:url(#SVGID_14_);}
	.st40{opacity:0.6;fill:#4169E1;}
</style>
<g>
	<defs>
		<rect id="SVGID_11_" x="-0.5" width="805" height="450"/>
	</defs>
	<clipPath id="SVGID_2_">
		<use xlink:href="#SVGID_11_"  style="overflow:visible;"/>
	</clipPath>
	<rect style="clip-path:url(#SVGID_2_);fill:#A7A9AC;" width="800" height="450"/>
	<rect x="0.5" y="100" style="clip-path:url(#SVGID_2_);fill:#808285;" width="816" height="125"/>
	<rect x="-64.5" y="225" style="clip-path:url(#SVGID_2_);fill:#58595B;" width="993" height="143"/>
	<g class="st5">
		<g>
			<g>
				<g>
					<path d="M371,195.3h-4.7v-28.1c0-26.1-21.2-47.4-47.4-47.4h-1c-26.1,0-47.4,21.2-47.4,47.4v28.1h-4.7v-28.1
						c0-28.7,23.3-52,52-52h1c28.7,0,52,23.3,52,52V195.3z"/>
				</g>
			</g>
			<g>
				<g>
					<path d="M270.1,179h22.2c1.2,0,2.2,0.5,2.2,1.1v0c0,0.6-1,1.1-2.2,1.1h-22.2c-1.2,0-2.2-0.5-2.2-1.1v0
						C267.9,179.5,268.9,179,270.1,179z"/>
				</g>
			</g>
			<g>
				<g>
					<g>
						<path d="M270.1,163.6h22.2c1.2,0,2.2,0.5,2.2,1.1v0c0,0.6-1,1.1-2.2,1.1h-22.2c-1.2,0-2.2-0.5-2.2-1.1v0
							C267.9,164.1,268.9,163.6,270.1,163.6z"/>
					</g>
				</g>
			</g>
			<g>
				<g>
					<path d="M273.3,148.5h22.2c1.2,0,2.2,0.5,2.2,1.1v0c0,0.6-1,1.1-2.2,1.1h-22.2c-1.2,0-2.2-0.5-2.2-1.1v0
						C271.1,149,272.1,148.5,273.3,148.5z"/>
				</g>
			</g>
			<g>
				<g>
					<path d="M280.6,135.5h22.2c1.2,0,2.2,0.5,2.2,1.1v0c0,0.6-1,1.1-2.2,1.1h-22.2c-1.2,0-2.2-0.5-2.2-1.1v0
						C278.4,136,279.4,135.5,280.6,135.5z"/>
				</g>
			</g>
			<g>
				<g>
					<path d="M291.4,125.3h22.2c1.2,0,2.2,0.5,2.2,1.1v0c0,0.6-1,1.1-2.2,1.1h-22.2c-1.2,0-2.2-0.5-2.2-1.1v0
						C289.2,125.8,290.2,125.3,291.4,125.3z"/>
				</g>
			</g>
			<g>
				<g>
					<path d="M304.9,118.7h22.2c1.2,0,2.2,0.5,2.2,1.1v0c0,0.6-1,1.1-2.2,1.1h-22.2c-1.2,0-2.2-0.5-2.2-1.1v0
						C302.7,119.2,303.7,118.7,304.9,118.7z"/>
				</g>
			</g>
			<g>
				<g>
					<path d="M320.3,116.4h22.2c1.2,0,2.2,0.5,2.2,1.1v0c0,0.6-1,1.1-2.2,1.1h-22.2c-1.2,0-2.2-0.5-2.2-1.1v0
						C318.1,116.9,319.1,116.4,320.3,116.4z"/>
				</g>
			</g>
			<g>
				<g>
					<path d="M335.6,118.7h22.2c1.2,0,2.2,0.5,2.2,1.1v0c0,0.6-1,1.1-2.2,1.1h-22.2c-1.2,0-2.2-0.5-2.2-1.1v0
						C333.4,119.2,334.4,118.7,335.6,118.7z"/>
				</g>
			</g>
			<g>
				<g>
					<path d="M349.1,125.3h22.2c1.2,0,2.2,0.5,2.2,1.1v0c0,0.6-1,1.1-2.2,1.1h-22.2c-1.2,0-2.2-0.5-2.2-1.1v0
						C346.9,125.8,347.9,125.3,349.1,125.3z"/>
				</g>
			</g>
			<g>
				<g>
					<path d="M359.9,135.5h22.2c1.2,0,2.2,0.5,2.2,1.1v0c0,0.6-1,1.1-2.2,1.1h-22.2c-1.2,0-2.2-0.5-2.2-1.1v0
						C357.7,136,358.7,135.5,359.9,135.5z"/>
				</g>
			</g>
			<g>
				<g>
					<path d="M367.3,148.5h22.2c1.2,0,2.2,0.5,2.2,1.1v0c0,0.6-1,1.1-2.2,1.1h-22.2c-1.2,0-2.2-0.5-2.2-1.1v0
						C365.1,149,366,148.5,367.3,148.5z"/>
				</g>
			</g>
			<g>
				<g>
					<path d="M370.4,163.6h22.2c1.2,0,2.2,0.5,2.2,1.1v0c0,0.6-1,1.1-2.2,1.1h-22.2c-1.2,0-2.2-0.5-2.2-1.1v0
						C368.2,164.1,369.2,163.6,370.4,163.6z"/>
				</g>
			</g>
			<g>
				<g>
					<path d="M370.5,179h22.2c1.2,0,2.2,0.5,2.2,1.1v0c0,0.6-1,1.1-2.2,1.1h-22.2c-1.2,0-2.2-0.5-2.2-1.1v0
						C368.3,179.5,369.3,179,370.5,179z"/>
				</g>
			</g>
			<g>
				<g>
					<path d="M397.6,195.3h-4.7v-28.1c0-26.1-21.2-47.4-47.4-47.4h-1c-26.1,0-47.4,21.2-47.4,47.4v28.1h-4.7v-28.1
						c0-28.7,23.3-52,52-52h1c28.7,0,52,23.3,52,52V195.3z"/>
				</g>
			</g>
		</g>
	</g>
	<g class="st5">
		<g>
			<g>
				<polygon points="438.5,161.4 438.5,85.6 541.9,85.6 541.9,161.4 547.5,161.4 547.5,80 432.9,80 432.9,161.4 438.5,161.4 				"/>
			</g>
			<g>
				<polygon points="454.7,85.3 454.7,143.7 478.6,143.7 478.6,82.8 472.9,82.8 472.9,138.1 460.4,138.1 460.4,85.3 454.7,85.3 				
					"/>
			</g>
			<g>
				<polygon points="501.8,85.3 501.8,143.7 525.6,143.7 525.6,82.8 520,82.8 520,138.1 507.4,138.1 507.4,85.3 501.8,85.3 				"/>
			</g>
		</g>
	</g>
	<path class="st5" d="M92.2,330c8.5,0,15.4,6.9,15.4,15.4c0,8.5-6.9,15.4-15.4,15.4c-8.5,0-15.4-6.9-15.4-15.4
		C76.9,336.8,83.8,330,92.2,330L92.2,330z M196.8,330c8.5,0,15.4,6.9,15.4,15.4c0,8.5-6.9,15.4-15.4,15.4c-8.5,0-15.4-6.9-15.4-15.4
		C181.4,336.8,188.3,330,196.8,330L196.8,330z M242.9,342.3l-24.8,0c-1.5-10.4-10.5-18.4-21.3-18.4c-10.8,0-19.8,8-21.3,18.4
		l-61.9,0c-1.5-10.4-10.5-18.4-21.3-18.4c-10.8,0-19.8,8-21.3,18.4l-12.5,0l0-67.6c0-6.8,5.5-12.3,12.3-12.3l156.8,0
		c6.8,0,12.3,5.5,12.3,12.3L242.9,342.3z M235.2,274.6l-10.8,0l0,43h12.3L235.2,274.6z M212.1,299.2l0-24.6l-30.8,0l0,24.6
		L212.1,299.2z M175.2,274.6l-30.7,0l0,24.6l30.7,0L175.2,274.6z M138.3,274.6l-30.7,0l0,24.6l30.7,0L138.3,274.6z M101.5,274.6
		l-30.7,0l0,24.6h30.7L101.5,274.6z"/>
	<g class="st5">
		<rect x="602.5" y="83" class="st11" width="155.4" height="333"/>
		<rect x="755.1" y="83" width="26.4" height="333"/>
		<g>
			<g>
				<rect x="620.1" y="162.4" class="st16" width="32.6" height="35.6"/>
				<rect x="663.9" y="162.4" class="st16" width="32.6" height="35.6"/>
				<rect x="707.7" y="162.4" width="32.6" height="35.6"/>
			</g>
			<g>
				<rect x="620.1" y="219.1" width="32.6" height="35.6"/>
				<rect x="663.9" y="219.1" class="st16" width="32.6" height="35.6"/>
				<rect x="707.7" y="219.1" class="st16" width="32.6" height="35.6"/>
			</g>
			<g>
				<rect x="620.1" y="275.9" class="st16" width="32.6" height="35.6"/>
				<rect x="663.9" y="275.9" class="st16" width="32.6" height="35.6"/>
				<rect x="707.7" y="275.9" class="st16" width="32.6" height="35.6"/>
			</g>
			<g>
				<rect x="620.1" y="332.6" class="st16" width="32.6" height="35.6"/>
				<rect x="663.9" y="332.6" width="32.6" height="35.6"/>
				<rect x="707.7" y="332.6" class="st16" width="32.6" height="35.6"/>
			</g>
		</g>
	</g>
	<g class="st5">
		<g>
			<rect x="180.7" y="99.6" width="13.9" height="76.4"/>
			<circle class="st15" cx="188.1" cy="69.2" r="42.4"/>
		</g>
		<g>
			<rect x="80.9" y="99.6" width="13.9" height="76.4"/>
			<circle class="st11" cx="88.3" cy="69.2" r="42.4"/>
		</g>
	</g>
	<g class="st5">
		<rect x="673.4" y="101.8" width="13" height="45.3"/>
		<rect x="673.4" y="102" transform="matrix(6.123234e-17 -1 1 6.123234e-17 555.2961 804.4539)" width="13" height="45.3"/>
	</g>
	<rect x="35.5" y="380" style="clip-path:url(#SVGID_2_);fill:#58595B;" width="294" height="26"/>
	<g class="st5">
		<rect x="297.5" y="264" width="10" height="127"/>
		<rect x="274.5" y="244" class="st11" width="56" height="56"/>
	</g>
</g>
</svg>
