<?xml version="1.0" encoding="utf-8"?>
<!-- Generator: Adobe Illustrator 22.0.1, SVG Export Plug-In . SVG Version: 6.00 Build 0)  -->
<svg version="1.1" id="Layer_1" xmlns="http://www.w3.org/2000/svg" xmlns:xlink="http://www.w3.org/1999/xlink" x="0px" y="0px"
	 viewBox="0 0 1920 1200" style="enable-background:new 0 0 1920 1200;" xml:space="preserve">
<style type="text/css">
	.st0{clip-path:url(#SVGID_2_);fill:#E9F0F4;}
	.st1{clip-path:url(#SVGID_2_);fill:#0363A0;}
	.st2{clip-path:url(#SVGID_2_);fill:#C1D2E5;}
	.st3{clip-path:url(#SVGID_2_);fill:#93BCD8;}
	.st4{clip-path:url(#SVGID_2_);fill:#085285;}
	.st5{clip-path:url(#SVGID_2_);}
	.st6{fill:#0363A0;}
	.st7{fill:#93BCD8;}
	.st8{fill:#085285;}
	.st9{fill:#C1D2E5;}
	.st10{fill:#C03B1A;}
	.st11{fill:#FFFFFF;}
	.st12{clip-path:url(#SVGID_2_);fill:#FFFFFF;}
	.st13{clip-path:url(#SVGID_4_);fill:#E6E7E8;}
	.st14{clip-path:url(#SVGID_4_);fill:#58595B;}
	.st15{clip-path:url(#SVGID_4_);fill:#A7A9AC;}
	.st16{clip-path:url(#SVGID_4_);fill:#808285;}
	.st17{clip-path:url(#SVGID_4_);}
	.st18{fill:#58595B;}
	.st19{fill:#808285;}
	.st20{fill:#A7A9AC;}
	.st21{fill:#414042;}
	.st22{clip-path:url(#SVGID_4_);fill:#FFFFFF;}
	.st23{clip-path:url(#SVGID_6_);fill:#E6E7E8;}
	.st24{clip-path:url(#SVGID_6_);fill:#58595B;}
	.st25{clip-path:url(#SVGID_6_);fill:#A7A9AC;}
	.st26{clip-path:url(#SVGID_6_);fill:#808285;}
	.st27{clip-path:url(#SVGID_6_);}
	.st28{clip-path:url(#SVGID_6_);fill:#FFFFFF;}
	.st29{clip-path:url(#SVGID_8_);fill:#E6E7E8;}
	.st30{clip-path:url(#SVGID_8_);fill:#58595B;}
	.st31{clip-path:url(#SVGID_8_);fill:#A7A9AC;}
	.st32{clip-path:url(#SVGID_8_);fill:#808285;}
	.st33{clip-path:url(#SVGID_8_);}
	.st34{clip-path:url(#SVGID_8_);fill:#FFFFFF;}
	.st35{opacity:0.81;fill:#4169E1;}
	.st36{opacity:0.89;fill:#A52A2A;}
</style>
<g>
	<defs>
		<rect id="SVGID_7_" x="0" y="2" width="1919" height="1197"/>
	</defs>
	<clipPath id="SVGID_2_">
		<use xlink:href="#SVGID_7_"  style="overflow:visible;"/>
	</clipPath>
	<rect x="-135.8" y="-64" style="clip-path:url(#SVGID_2_);fill:#E6E7E8;" width="2363" height="931.3"/>
	<path style="clip-path:url(#SVGID_2_);fill:#58595B;" d="M1716.2,660.5c0,272.2-828.9,521.5-1295.1,521.5S-423,961.3-423,689.1
		s342.6-470.4,844.1-492.9C886.8,175.3,1716.2,388.3,1716.2,660.5z"/>
	<path style="clip-path:url(#SVGID_2_);fill:#A7A9AC;" d="M-25.1,654.9C1.4,612.5,404,363.6,928.5,350.3
		c524.4-13.2,974.7,0,1395.8,262.2"/>
	<path style="clip-path:url(#SVGID_2_);fill:#808285;" d="M1683.3,382.1l-815.8-2.6v37.1c0,0,937.6-5.3,982.6-2.6
		C1741.6,387.4,1683.3,382.1,1683.3,382.1z"/>
	<rect x="-80.7" y="731.7" style="clip-path:url(#SVGID_2_);fill:#A7A9AC;" width="2433.7" height="397.3"/>
	<polygon style="clip-path:url(#SVGID_2_);fill:#808285;" points="472.9,619.9 923.2,345 1007.9,347.7 713.9,633.7 	"/>
	<rect x="303.4" y="612.5" style="clip-path:url(#SVGID_2_);fill:#808285;" width="2085.6" height="119.2"/>
	<rect x="30.6" y="779.4" class="st5" width="1899.1" height="174.8"/>
	<g class="st5">
		<polygon class="st18" points="1177.8,245.4 1223.3,245.4 1209.8,270.6 1164.2,270.6 		"/>
		<polygon class="st19" points="1209.8,382.1 1238.9,382.1 1238.9,270.6 1223.3,245.4 1209.8,270.6 		"/>
		<rect x="1164.2" y="270.6" width="45.6" height="111.5"/>
		<rect x="1170" y="278.4" class="st19" width="11.6" height="11.6"/>
		<rect x="1188.4" y="278.4" class="st19" width="11.6" height="11.6"/>
		<rect x="1220.4" y="278.4" width="8.7" height="11.6"/>
		<rect x="1170" y="295.8" class="st19" width="11.6" height="11.6"/>
		<rect x="1188.4" y="295.8" width="11.6" height="11.6"/>
		<rect x="1220.4" y="295.8" width="8.7" height="11.6"/>
		<rect x="1170" y="313.3" class="st19" width="11.6" height="11.6"/>
		<rect x="1188.4" y="313.3" class="st19" width="11.6" height="11.6"/>
		<rect x="1220.4" y="313.3" width="8.7" height="11.6"/>
		<rect x="1170" y="330.7" class="st19" width="11.6" height="11.6"/>
		<rect x="1188.4" y="330.7" class="st19" width="11.6" height="11.6"/>
		<rect x="1220.4" y="330.7" width="8.7" height="11.6"/>
	</g>
	<g class="st5">
		<polygon class="st19" points="1250.9,245.4 1296.5,245.4 1282.9,270.6 1237.3,270.6 		"/>
		<polygon points="1282.9,382.1 1312,382.1 1312,270.6 1296.5,245.4 1282.9,270.6 		"/>
		<rect x="1237.3" y="270.6" class="st18" width="45.6" height="111.5"/>
		<rect x="1243.1" y="278.4" class="st19" width="11.6" height="11.6"/>
		<rect x="1261.5" y="278.4" class="st19" width="11.6" height="11.6"/>
		<rect x="1293.5" y="278.4" class="st20" width="8.7" height="11.6"/>
		<rect x="1243.1" y="295.8" class="st19" width="11.6" height="11.6"/>
		<rect x="1261.5" y="295.8" class="st19" width="11.6" height="11.6"/>
		<rect x="1293.5" y="295.8" class="st21" width="8.7" height="11.6"/>
		<rect x="1243.1" y="313.3" class="st19" width="11.6" height="11.6"/>
		<rect x="1261.5" y="313.3" class="st19" width="11.6" height="11.6"/>
		<rect x="1293.5" y="313.3" class="st20" width="8.7" height="11.6"/>
		<rect x="1243.1" y="330.7" width="11.6" height="11.6"/>
		<rect x="1261.5" y="330.7" class="st19" width="11.6" height="11.6"/>
		<rect x="1293.5" y="330.7" class="st21" width="8.7" height="11.6"/>
	</g>
	<g class="st5">
		<polygon class="st18" points="1324,245.4 1369.6,245.4 1356,270.6 1310.4,270.6 		"/>
		<polygon class="st19" points="1356,382.1 1385.1,382.1 1385.1,270.6 1369.6,245.4 1356,270.6 		"/>
		<rect x="1310.4" y="270.6" width="45.6" height="111.5"/>
		<rect x="1316.2" y="278.4" class="st19" width="11.6" height="11.6"/>
		<rect x="1334.7" y="278.4" class="st19" width="11.6" height="11.6"/>
		<rect x="1366.7" y="278.4" width="8.7" height="11.6"/>
		<rect x="1316.2" y="295.8" class="st19" width="11.6" height="11.6"/>
		<rect x="1334.7" y="295.8" width="11.6" height="11.6"/>
		<rect x="1366.7" y="295.8" width="8.7" height="11.6"/>
		<rect x="1316.2" y="313.3" class="st19" width="11.6" height="11.6"/>
		<rect x="1334.7" y="313.3" class="st19" width="11.6" height="11.6"/>
		<rect x="1366.7" y="313.3" width="8.7" height="11.6"/>
		<rect x="1316.2" y="330.7" class="st19" width="11.6" height="11.6"/>
		<rect x="1334.7" y="330.7" class="st19" width="11.6" height="11.6"/>
		<rect x="1366.7" y="330.7" width="8.7" height="11.6"/>
	</g>
	<g class="st5">
		<polygon class="st19" points="1397.1,245.4 1442.7,245.4 1429.1,270.6 1383.5,270.6 		"/>
		<polygon points="1429.1,382.1 1458.2,382.1 1458.2,270.6 1442.7,245.4 1429.1,270.6 		"/>
		<rect x="1383.5" y="270.6" class="st18" width="45.6" height="111.5"/>
		<rect x="1389.3" y="278.4" class="st19" width="11.6" height="11.6"/>
		<rect x="1407.8" y="278.4" class="st19" width="11.6" height="11.6"/>
		<rect x="1439.8" y="278.4" class="st20" width="8.7" height="11.6"/>
		<rect x="1389.3" y="295.8" class="st19" width="11.6" height="11.6"/>
		<rect x="1407.8" y="295.8" class="st19" width="11.6" height="11.6"/>
		<rect x="1439.8" y="295.8" class="st21" width="8.7" height="11.6"/>
		<rect x="1389.3" y="313.3" class="st19" width="11.6" height="11.6"/>
		<rect x="1407.8" y="313.3" class="st19" width="11.6" height="11.6"/>
		<rect x="1439.8" y="313.3" class="st20" width="8.7" height="11.6"/>
		<rect x="1389.3" y="330.7" width="11.6" height="11.6"/>
		<rect x="1407.8" y="330.7" class="st19" width="11.6" height="11.6"/>
		<rect x="1439.8" y="330.7" class="st20" width="8.7" height="11.6"/>
	</g>
	<g class="st5">
		<rect x="1742.3" y="219.1" width="102.7" height="220.1"/>
		<rect x="1843.1" y="219.1" class="st19" width="17.4" height="220.1"/>
		<g>
			<g>
				<rect x="1753.9" y="234.1" class="st19" width="21.5" height="23.6"/>
				<rect x="1782.9" y="234.1" class="st19" width="21.5" height="23.6"/>
				<rect x="1811.8" y="234.1" class="st19" width="21.5" height="23.6"/>
			</g>
			<g>
				<rect x="1753.9" y="271.6" class="st19" width="21.5" height="23.6"/>
				<rect x="1782.9" y="271.6" class="st21" width="21.5" height="23.6"/>
				<rect x="1811.8" y="271.6" class="st19" width="21.5" height="23.6"/>
			</g>
			<g>
				<rect x="1753.9" y="309.1" class="st19" width="21.5" height="23.6"/>
				<rect x="1782.9" y="309.1" class="st19" width="21.5" height="23.6"/>
				<rect x="1811.8" y="309.1" class="st19" width="21.5" height="23.6"/>
			</g>
			<g>
				<rect x="1753.9" y="346.6" class="st19" width="21.5" height="23.6"/>
				<rect x="1782.9" y="346.6" class="st19" width="21.5" height="23.6"/>
				<rect x="1811.8" y="346.6" class="st19" width="21.5" height="23.6"/>
			</g>
			<g>
				<rect x="1753.9" y="384.1" class="st19" width="21.5" height="23.6"/>
				<rect x="1782.9" y="384.1" class="st21" width="21.5" height="23.6"/>
				<rect x="1811.8" y="384.1" class="st19" width="21.5" height="23.6"/>
			</g>
		</g>
	</g>
	<g class="st5">
		<polygon class="st11" points="1833.6,640.7 1682.8,640.7 1699.5,623 1850.2,623 		"/>
		<polygon class="st11" points="1808.2,667.7 1657.5,667.7 1674.1,650 1824.8,650 		"/>
		<polygon class="st11" points="1782.9,694.7 1632.2,694.7 1648.8,677 1799.5,677 		"/>
		<polygon class="st11" points="1757.5,721.8 1606.8,721.8 1623.5,704 1774.2,704 		"/>
	</g>
	<g class="st5">
		<g>
			<rect x="931.1" y="904.2" class="st19" width="19.2" height="105.5"/>
			<circle class="st11" cx="941.4" cy="862.1" r="58.6"/>
		</g>
		<g>
			<rect x="793.3" y="904.2" class="st19" width="19.2" height="105.5"/>
			<circle class="st18" cx="803.5" cy="862.1" r="58.6"/>
		</g>
	</g>
	<g class="st5">
		<g>
			<rect x="648.1" y="671.5" class="st18" width="15.3" height="83.9"/>
			<circle class="st11" cx="656.3" cy="638" r="46.6"/>
		</g>
		<g>
			<rect x="538.4" y="671.5" class="st11" width="15.3" height="83.9"/>
			<circle cx="546.6" cy="638" r="46.6"/>
		</g>
	</g>
	<g class="st5">
		<g>
			<rect x="1598.3" y="550.2" class="st18" width="10.8" height="59.6"/>
			<circle class="st11" cx="1604.1" cy="526.4" r="33.1"/>
		</g>
		<g>
			<rect x="1520.5" y="550.2" class="st21" width="10.8" height="59.6"/>
			<circle cx="1526.3" cy="526.4" r="33.1"/>
		</g>
	</g>
	<g class="st5">
		<rect x="1660.5" y="268.5" width="102.7" height="220.1"/>
		<rect x="1761.4" y="268.5" class="st19" width="17.4" height="220.1"/>
		<g>
			<g>
				<rect x="1672.2" y="283.4" class="st19" width="21.5" height="23.6"/>
				<rect x="1701.1" y="283.4" class="st19" width="21.5" height="23.6"/>
				<rect x="1730.1" y="283.4" class="st19" width="21.5" height="23.6"/>
			</g>
			<g>
				<rect x="1672.2" y="320.9" class="st19" width="21.5" height="23.6"/>
				<rect x="1701.1" y="320.9" class="st19" width="21.5" height="23.6"/>
				<rect x="1730.1" y="320.9" width="21.5" height="23.6"/>
			</g>
			<g>
				<rect x="1672.2" y="358.4" width="21.5" height="23.6"/>
				<rect x="1701.1" y="358.4" class="st19" width="21.5" height="23.6"/>
				<rect x="1730.1" y="358.4" class="st19" width="21.5" height="23.6"/>
			</g>
			<g>
				<rect x="1672.2" y="395.9" class="st19" width="21.5" height="23.6"/>
				<rect x="1701.1" y="395.9" class="st19" width="21.5" height="23.6"/>
				<rect x="1730.1" y="395.9" class="st19" width="21.5" height="23.6"/>
			</g>
			<g>
				<rect x="1672.2" y="433.4" class="st19" width="21.5" height="23.6"/>
				<rect x="1701.1" y="433.4" width="21.5" height="23.6"/>
				<rect x="1730.1" y="433.4" class="st19" width="21.5" height="23.6"/>
			</g>
		</g>
	</g>
	<g class="st5">
		<rect x="698" y="196.7" width="94.8" height="203.2"/>
		<rect x="791.1" y="196.7" class="st18" width="16.1" height="203.2"/>
		<g>
			<g>
				<rect x="708.7" y="210.5" class="st19" width="19.9" height="21.8"/>
				<rect x="735.5" y="210.5" class="st19" width="19.9" height="21.8"/>
				<rect x="762.2" y="210.5" class="st19" width="19.9" height="21.8"/>
			</g>
			<g>
				<rect x="708.7" y="245.1" class="st19" width="19.9" height="21.8"/>
				<rect x="735.5" y="245.1" class="st21" width="19.9" height="21.8"/>
				<rect x="762.2" y="245.1" class="st19" width="19.9" height="21.8"/>
			</g>
			<g>
				<rect x="708.7" y="279.8" class="st19" width="19.9" height="21.8"/>
				<rect x="735.5" y="279.8" class="st19" width="19.9" height="21.8"/>
				<rect x="762.2" y="279.8" class="st19" width="19.9" height="21.8"/>
			</g>
			<g>
				<rect x="708.7" y="314.4" class="st19" width="19.9" height="21.8"/>
				<rect x="735.5" y="314.4" class="st19" width="19.9" height="21.8"/>
				<rect x="762.2" y="314.4" class="st19" width="19.9" height="21.8"/>
			</g>
			<g>
				<rect x="708.7" y="349" class="st19" width="19.9" height="21.8"/>
				<rect x="735.5" y="349" class="st21" width="19.9" height="21.8"/>
				<rect x="762.2" y="349" class="st19" width="19.9" height="21.8"/>
			</g>
		</g>
	</g>
	<g class="st5">
		<rect x="619" y="242.3" class="st11" width="94.8" height="203.2"/>
		<rect x="712.1" y="242.3" class="st19" width="16.1" height="203.2"/>
		<g>
			<g>
				<rect x="629.7" y="256.1" class="st19" width="19.9" height="21.8"/>
				<rect x="656.5" y="256.1" class="st19" width="19.9" height="21.8"/>
				<rect x="683.2" y="256.1" class="st19" width="19.9" height="21.8"/>
			</g>
			<g>
				<rect x="629.7" y="290.7" class="st19" width="19.9" height="21.8"/>
				<rect x="656.5" y="290.7" class="st19" width="19.9" height="21.8"/>
				<rect x="683.2" y="290.7" width="19.9" height="21.8"/>
			</g>
			<g>
				<rect x="629.7" y="325.4" width="19.9" height="21.8"/>
				<rect x="656.5" y="325.4" class="st19" width="19.9" height="21.8"/>
				<rect x="683.2" y="325.4" class="st19" width="19.9" height="21.8"/>
			</g>
			<g>
				<rect x="629.7" y="360" class="st19" width="19.9" height="21.8"/>
				<rect x="656.5" y="360" class="st19" width="19.9" height="21.8"/>
				<rect x="683.2" y="360" class="st19" width="19.9" height="21.8"/>
			</g>
			<g>
				<rect x="629.7" y="394.6" class="st19" width="19.9" height="21.8"/>
				<rect x="656.5" y="394.6" width="19.9" height="21.8"/>
				<rect x="683.2" y="394.6" class="st19" width="19.9" height="21.8"/>
			</g>
		</g>
	</g>
	<path style="clip-path:url(#SVGID_2_);fill:#58595B;" d="M-390.6,919.8c0,0,267.5-132.4,474.1-127.1S549.7,840.6,708.6,957
		s264,118.7,481.2,126.7s-1601.5-23.5-1601.5-23.5L-390.6,919.8z"/>
	<polygon class="st12" points="430.5,878.4 430.5,539.9 336.4,465.5 250.4,539.9 250.4,879.3 	"/>
	<g class="st5">
		<g>
			<path class="st20" d="M408.5,1034.3h-4.7v-28.1c0-26.1-21.2-47.4-47.4-47.4h-1c-26.1,0-47.4,21.2-47.4,47.4v28.1h-4.7v-28.1
				c0-28.7,23.3-52,52-52h1c28.7,0,52,23.3,52,52V1034.3z"/>
		</g>
		<g>
			<path class="st20" d="M307.6,1018h22.2c1.2,0,2.2,0.5,2.2,1.1v0c0,0.6-1,1.1-2.2,1.1h-22.2c-1.2,0-2.2-0.5-2.2-1.1v0
				C305.4,1018.5,306.4,1018,307.6,1018z"/>
		</g>
		<g>
			<g>
				<g>
					<path class="st20" d="M307.6,1002.6h22.2c1.2,0,2.2,0.5,2.2,1.1v0c0,0.6-1,1.1-2.2,1.1h-22.2c-1.2,0-2.2-0.5-2.2-1.1v0
						C305.4,1003.1,306.4,1002.6,307.6,1002.6z"/>
				</g>
			</g>
		</g>
		<g>
			<path class="st20" d="M310.8,987.5H333c1.2,0,2.2,0.5,2.2,1.1v0c0,0.6-1,1.1-2.2,1.1h-22.2c-1.2,0-2.2-0.5-2.2-1.1v0
				C308.6,988,309.6,987.5,310.8,987.5z"/>
		</g>
		<g>
			<path class="st20" d="M318.1,974.5h22.2c1.2,0,2.2,0.5,2.2,1.1v0c0,0.6-1,1.1-2.2,1.1h-22.2c-1.2,0-2.2-0.5-2.2-1.1v0
				C315.9,975,316.9,974.5,318.1,974.5z"/>
		</g>
		<g>
			<path class="st20" d="M328.9,964.3h22.2c1.2,0,2.2,0.5,2.2,1.1v0c0,0.6-1,1.1-2.2,1.1h-22.2c-1.2,0-2.2-0.5-2.2-1.1v0
				C326.7,964.8,327.7,964.3,328.9,964.3z"/>
		</g>
		<g>
			<path class="st20" d="M342.4,957.7h22.2c1.2,0,2.2,0.5,2.2,1.1v0c0,0.6-1,1.1-2.2,1.1h-22.2c-1.2,0-2.2-0.5-2.2-1.1v0
				C340.2,958.2,341.2,957.7,342.4,957.7z"/>
		</g>
		<g>
			<path class="st20" d="M357.8,955.4H380c1.2,0,2.2,0.5,2.2,1.1v0c0,0.6-1,1.1-2.2,1.1h-22.2c-1.2,0-2.2-0.5-2.2-1.1v0
				C355.6,955.9,356.6,955.4,357.8,955.4z"/>
		</g>
		<g>
			<path class="st20" d="M373.1,957.7h22.2c1.2,0,2.2,0.5,2.2,1.1v0c0,0.6-1,1.1-2.2,1.1h-22.2c-1.2,0-2.2-0.5-2.2-1.1v0
				C370.9,958.2,371.9,957.7,373.1,957.7z"/>
		</g>
		<g>
			<path class="st20" d="M386.6,964.3h22.2c1.2,0,2.2,0.5,2.2,1.1v0c0,0.6-1,1.1-2.2,1.1h-22.2c-1.2,0-2.2-0.5-2.2-1.1v0
				C384.4,964.8,385.4,964.3,386.6,964.3z"/>
		</g>
		<g>
			<path class="st20" d="M397.4,974.5h22.2c1.2,0,2.2,0.5,2.2,1.1v0c0,0.6-1,1.1-2.2,1.1h-22.2c-1.2,0-2.2-0.5-2.2-1.1v0
				C395.2,975,396.2,974.5,397.4,974.5z"/>
		</g>
		<g>
			<path class="st20" d="M404.8,987.5H427c1.2,0,2.2,0.5,2.2,1.1v0c0,0.6-1,1.1-2.2,1.1h-22.2c-1.2,0-2.2-0.5-2.2-1.1v0
				C402.6,988,403.5,987.5,404.8,987.5z"/>
		</g>
		<g>
			<path class="st20" d="M407.9,1002.6h22.2c1.2,0,2.2,0.5,2.2,1.1v0c0,0.6-1,1.1-2.2,1.1h-22.2c-1.2,0-2.2-0.5-2.2-1.1v0
				C405.7,1003.1,406.7,1002.6,407.9,1002.6z"/>
		</g>
		<g>
			<path class="st20" d="M408,1018h22.2c1.2,0,2.2,0.5,2.2,1.1v0c0,0.6-1,1.1-2.2,1.1H408c-1.2,0-2.2-0.5-2.2-1.1v0
				C405.8,1018.5,406.8,1018,408,1018z"/>
		</g>
		<g>
			<path class="st20" d="M435.1,1034.3h-4.7v-28.1c0-26.1-21.2-47.4-47.4-47.4h-1c-26.1,0-47.4,21.2-47.4,47.4v28.1h-4.7v-28.1
				c0-28.7,23.3-52,52-52h1c28.7,0,52,23.3,52,52V1034.3z"/>
		</g>
	</g>
	<g class="st5">
		<g>
			<g>
				<polygon class="st20" points="486.3,964.4 486.3,871.1 613.6,871.1 613.6,964.4 620.6,964.4 620.6,864.2 479.4,864.2 
					479.4,964.4 486.3,964.4 				"/>
			</g>
			<g>
				<polygon class="st20" points="506.3,870.7 506.3,942.6 535.7,942.6 535.7,867.6 528.7,867.6 528.7,935.7 513.2,935.7 
					513.2,870.7 506.3,870.7 				"/>
			</g>
			<g>
				<polygon class="st20" points="564.3,870.7 564.3,942.6 593.6,942.6 593.6,867.6 586.7,867.6 586.7,935.7 571.2,935.7 
					571.2,870.7 564.3,870.7 				"/>
			</g>
		</g>
	</g>
	<rect x="-25.1" y="541.1" class="st5" width="276.6" height="339.4"/>
	<polygon style="clip-path:url(#SVGID_2_);fill:#808285;" points="58.6,466.7 335.2,466.7 251.5,541.1 -25.1,541.1 	"/>
	<path class="st5" d="M1293.7,590c8.5,0,15.4,6.9,15.4,15.4c0,8.5-6.9,15.4-15.4,15.4c-8.5,0-15.4-6.9-15.4-15.4
		C1278.4,596.8,1285.3,590,1293.7,590L1293.7,590z M1398.3,590c8.5,0,15.4,6.9,15.4,15.4c0,8.5-6.9,15.4-15.4,15.4
		c-8.5,0-15.4-6.9-15.4-15.4C1382.9,596.8,1389.8,590,1398.3,590L1398.3,590z M1444.4,602.3h-24.8c-1.5-10.4-10.5-18.4-21.3-18.4
		c-10.8,0-19.8,8-21.3,18.4H1315c-1.5-10.4-10.5-18.4-21.3-18.4c-10.8,0-19.8,8-21.3,18.4h-12.5v-67.6c0-6.8,5.5-12.3,12.3-12.3
		l156.8,0c6.8,0,12.3,5.5,12.3,12.3L1444.4,602.3z M1436.7,534.6h-10.8l0,43h12.3L1436.7,534.6z M1413.6,559.2v-24.6h-30.8v24.6
		L1413.6,559.2z M1376.7,534.6l-30.7,0v24.6h30.7V534.6z M1339.8,534.6h-30.7v24.6l30.7,0L1339.8,534.6z M1303,534.6l-30.7,0v24.6
		h30.7V534.6z"/>
	<path class="st5" d="M1581.6,377.4c-5,0-9.1,4.1-9.1,9.1c0,5,4.1,9.1,9.1,9.1c5,0,9.1-4.1,9.1-9.1
		C1590.7,381.5,1586.6,377.4,1581.6,377.4L1581.6,377.4z M1519.9,377.4c-5,0-9.1,4.1-9.1,9.1c0,5,4.1,9.1,9.1,9.1
		c5,0,9.1-4.1,9.1-9.1C1528.9,381.5,1524.9,377.4,1519.9,377.4L1519.9,377.4z M1492.6,384.7h14.7c0.9-6.2,6.2-10.9,12.6-10.9
		s11.7,4.7,12.6,10.9l36.6,0c0.9-6.2,6.2-10.9,12.6-10.9c6.4,0,11.7,4.7,12.6,10.9h7.4v-40c0-4-3.2-7.3-7.3-7.3l-92.6,0
		c-4,0-7.3,3.2-7.3,7.3L1492.6,384.7z M1497.2,344.7h6.4v25.4h-7.3L1497.2,344.7z M1510.8,359.3v-14.5l18.2,0v14.5L1510.8,359.3z
		 M1532.6,344.7l18.2,0v14.5l-18.2,0V344.7z M1554.4,344.7h18.2v14.5h-18.2V344.7z M1576.2,344.7l18.2,0v14.5l-18.2,0V344.7z"/>
	<g class="st5">
		<g>
			<rect x="1857" y="904" class="st19" width="17.3" height="95.1"/>
			<circle class="st18" cx="1866.2" cy="866.1" r="52.8"/>
		</g>
		<g>
			<rect x="1732.8" y="904" class="st19" width="17.3" height="95.1"/>
			<circle class="st11" cx="1742" cy="866.1" r="52.8"/>
		</g>
	</g>
	<g class="st5">
		<rect x="540" y="276.2" width="94.8" height="203.2"/>
		<rect x="633.1" y="276.2" class="st18" width="16.1" height="203.2"/>
		<g>
			<g>
				<rect x="550.7" y="290" class="st19" width="19.9" height="21.8"/>
				<rect x="577.5" y="290" class="st19" width="19.9" height="21.8"/>
				<rect x="604.2" y="290" class="st19" width="19.9" height="21.8"/>
			</g>
			<g>
				<rect x="550.7" y="324.6" class="st19" width="19.9" height="21.8"/>
				<rect x="577.5" y="324.6" class="st21" width="19.9" height="21.8"/>
				<rect x="604.2" y="324.6" class="st19" width="19.9" height="21.8"/>
			</g>
			<g>
				<rect x="550.7" y="359.2" class="st19" width="19.9" height="21.8"/>
				<rect x="577.5" y="359.2" class="st19" width="19.9" height="21.8"/>
				<rect x="604.2" y="359.2" class="st19" width="19.9" height="21.8"/>
			</g>
			<g>
				<rect x="550.7" y="393.9" class="st19" width="19.9" height="21.8"/>
				<rect x="577.5" y="393.9" class="st19" width="19.9" height="21.8"/>
				<rect x="604.2" y="393.9" class="st19" width="19.9" height="21.8"/>
			</g>
			<g>
				<rect x="550.7" y="428.5" class="st19" width="19.9" height="21.8"/>
				<rect x="577.5" y="428.5" class="st21" width="19.9" height="21.8"/>
				<rect x="604.2" y="428.5" class="st19" width="19.9" height="21.8"/>
			</g>
		</g>
	</g>
	<g class="st5">
		<rect x="461" y="321.8" class="st11" width="94.8" height="203.2"/>
		<rect x="554.1" y="321.8" class="st19" width="16.1" height="203.2"/>
		<g>
			<g>
				<rect x="471.7" y="335.6" class="st19" width="19.9" height="21.8"/>
				<rect x="498.4" y="335.6" class="st19" width="19.9" height="21.8"/>
				<rect x="525.2" y="335.6" class="st19" width="19.9" height="21.8"/>
			</g>
			<g>
				<rect x="471.7" y="370.2" class="st19" width="19.9" height="21.8"/>
				<rect x="498.4" y="370.2" class="st19" width="19.9" height="21.8"/>
				<rect x="525.2" y="370.2" width="19.9" height="21.8"/>
			</g>
			<g>
				<rect x="471.7" y="404.8" width="19.9" height="21.8"/>
				<rect x="498.4" y="404.8" class="st19" width="19.9" height="21.8"/>
				<rect x="525.2" y="404.8" class="st19" width="19.9" height="21.8"/>
			</g>
			<g>
				<rect x="471.7" y="439.5" class="st19" width="19.9" height="21.8"/>
				<rect x="498.4" y="439.5" class="st19" width="19.9" height="21.8"/>
				<rect x="525.2" y="439.5" class="st19" width="19.9" height="21.8"/>
			</g>
			<g>
				<rect x="471.7" y="474.1" class="st19" width="19.9" height="21.8"/>
				<rect x="498.4" y="474.1" width="19.9" height="21.8"/>
				<rect x="525.2" y="474.1" class="st19" width="19.9" height="21.8"/>
			</g>
		</g>
	</g>
	<rect x="303.4" y="755.6" style="clip-path:url(#SVGID_2_);fill:#58595B;" width="79.5" height="124.5"/>
	<g class="st5">
		<rect x="-3.9" y="573.5" class="st19" width="50.3" height="100"/>
		<rect x="56.2" y="573.5" class="st19" width="50.3" height="100"/>
		<rect x="116.2" y="573.5" class="st19" width="50.3" height="100"/>
		<rect x="176.2" y="573.5" class="st19" width="50.3" height="100"/>
	</g>
	<g class="st5">
		<rect x="-3.9" y="684.7" class="st19" width="50.3" height="100"/>
		<rect x="56.2" y="684.7" class="st19" width="50.3" height="100"/>
		<rect x="116.2" y="684.7" class="st19" width="50.3" height="100"/>
		<rect x="176.2" y="684.7" class="st19" width="50.3" height="100"/>
	</g>
	<g class="st5">
		<polygon points="1060.9,689.4 1185.4,689.4 1148.3,758.2 1023.8,758.2 		"/>
		<polygon class="st20" points="1148.3,1062.8 1227.8,1062.8 1227.8,758.2 1185.4,689.4 1148.3,758.2 		"/>
		<rect x="1023.8" y="758.2" class="st11" width="124.5" height="304.6"/>
		<rect x="1082.1" y="647" class="st11" width="23.8" height="66.2"/>
		<rect x="1039.7" y="779.4" class="st19" width="31.8" height="31.8"/>
		<rect x="1090" y="779.4" class="st19" width="31.8" height="31.8"/>
		<rect x="1177.4" y="779.4" width="23.8" height="31.8"/>
		<rect x="1039.7" y="827.1" class="st19" width="31.8" height="31.8"/>
		<rect x="1090" y="827.1" class="st19" width="31.8" height="31.8"/>
		<rect x="1177.4" y="827.1" width="23.8" height="31.8"/>
		<rect x="1039.7" y="874.8" class="st19" width="31.8" height="31.8"/>
		<rect x="1090" y="874.8" width="31.8" height="31.8"/>
		<rect x="1177.4" y="874.8" width="23.8" height="31.8"/>
		<rect x="1039.7" y="922.4" width="31.8" height="31.8"/>
		<rect x="1090" y="922.4" class="st19" width="31.8" height="31.8"/>
		<rect x="1177.4" y="922.4" width="23.8" height="31.8"/>
	</g>
	<g class="st5">
		<polygon points="1264.8,689.4 1389.3,689.4 1352.2,758.2 1227.8,758.2 		"/>
		<polygon class="st20" points="1352.2,1062.8 1431.7,1062.8 1431.7,758.2 1389.3,689.4 1352.2,758.2 		"/>
		<rect x="1227.8" y="758.2" class="st18" width="124.5" height="304.6"/>
		<rect x="1286" y="647" class="st11" width="23.8" height="66.2"/>
		<rect x="1243.6" y="779.4" class="st21" width="31.8" height="31.8"/>
		<rect x="1294" y="779.4" class="st19" width="31.8" height="31.8"/>
		<rect x="1381.4" y="779.4" width="23.8" height="31.8"/>
		<rect x="1243.6" y="827.1" class="st19" width="31.8" height="31.8"/>
		<rect x="1294" y="827.1" class="st19" width="31.8" height="31.8"/>
		<rect x="1381.4" y="827.1" width="23.8" height="31.8"/>
		<rect x="1243.6" y="874.8" class="st19" width="31.8" height="31.8"/>
		<rect x="1294" y="874.8" class="st21" width="31.8" height="31.8"/>
		<rect x="1381.4" y="874.8" width="23.8" height="31.8"/>
		<rect x="1243.6" y="922.4" class="st19" width="31.8" height="31.8"/>
		<rect x="1294" y="922.4" class="st19" width="31.8" height="31.8"/>
		<rect x="1381.4" y="922.4" width="23.8" height="31.8"/>
	</g>
	<g class="st5">
		<polygon class="st18" points="1468.8,689.4 1593.3,689.4 1556.2,758.2 1431.7,758.2 		"/>
		<polygon class="st11" points="1556.2,1062.8 1635.6,1062.8 1635.6,758.2 1593.3,689.4 1556.2,758.2 		"/>
		<rect x="1431.7" y="758.2" width="124.5" height="304.6"/>
		<rect x="1490" y="647" class="st11" width="23.8" height="66.2"/>
		<rect x="1447.6" y="779.4" class="st19" width="31.8" height="31.8"/>
		<rect x="1497.9" y="779.4" width="31.8" height="31.8"/>
		<rect x="1585.3" y="779.4" width="23.8" height="31.8"/>
		<rect x="1447.6" y="827.1" class="st19" width="31.8" height="31.8"/>
		<rect x="1497.9" y="827.1" class="st19" width="31.8" height="31.8"/>
		<rect x="1585.3" y="827.1" width="23.8" height="31.8"/>
		<rect x="1447.6" y="874.8" width="31.8" height="31.8"/>
		<rect x="1497.9" y="874.8" class="st19" width="31.8" height="31.8"/>
		<rect x="1585.3" y="874.8" width="23.8" height="31.8"/>
		<rect x="1447.6" y="922.4" class="st19" width="31.8" height="31.8"/>
		<rect x="1497.9" y="922.4" class="st19" width="31.8" height="31.8"/>
		<rect x="1585.3" y="922.4" width="23.8" height="31.8"/>
	</g>
	<g class="st5">
		<polygon points="913.9,332.4 1007.3,332.4 979.4,384.1 886.1,384.1 		"/>
		<polygon class="st19" points="979.4,612.5 1039,612.5 1039,384.1 1007.3,332.4 979.4,384.1 		"/>
		<rect x="886.1" y="384.1" class="st11" width="93.4" height="228.4"/>
		<rect x="929.8" y="300.7" class="st11" width="17.9" height="49.7"/>
		<rect x="898" y="400" class="st19" width="23.8" height="23.8"/>
		<rect x="935.7" y="400" class="st19" width="23.8" height="23.8"/>
		<rect x="1001.3" y="400" width="17.9" height="23.8"/>
		<rect x="898" y="435.7" class="st19" width="23.8" height="23.8"/>
		<rect x="935.7" y="435.7" width="23.8" height="23.8"/>
		<rect x="1001.3" y="435.7" width="17.9" height="23.8"/>
		<rect x="898" y="471.5" class="st19" width="23.8" height="23.8"/>
		<rect x="935.7" y="471.5" class="st19" width="23.8" height="23.8"/>
		<rect x="1001.3" y="471.5" width="17.9" height="23.8"/>
		<rect x="898" y="507.3" class="st19" width="23.8" height="23.8"/>
		<rect x="935.7" y="507.3" class="st19" width="23.8" height="23.8"/>
		<rect x="1001.3" y="507.3" width="17.9" height="23.8"/>
	</g>
	<g class="st5">
		<polygon points="1065.5,332.4 1158.9,332.4 1131.1,384.1 1037.7,384.1 		"/>
		<polygon class="st18" points="1131.1,612.5 1190.7,612.5 1190.7,384.1 1158.9,332.4 1131.1,384.1 		"/>
		<rect x="1037.7" y="384.1" width="93.4" height="228.4"/>
		<rect x="1081.4" y="300.7" class="st11" width="17.9" height="49.7"/>
		<rect x="1049.6" y="400" class="st19" width="23.8" height="23.8"/>
		<rect x="1087.4" y="400" class="st19" width="23.8" height="23.8"/>
		<rect x="1152.9" y="400" class="st20" width="17.9" height="23.8"/>
		<rect x="1049.6" y="435.7" class="st19" width="23.8" height="23.8"/>
		<rect x="1087.4" y="435.7" class="st19" width="23.8" height="23.8"/>
		<rect x="1152.9" y="435.7" class="st20" width="17.9" height="23.8"/>
		<rect x="1049.6" y="471.5" class="st19" width="23.8" height="23.8"/>
		<rect x="1087.4" y="471.5" class="st19" width="23.8" height="23.8"/>
		<rect x="1152.9" y="471.5" class="st20" width="17.9" height="23.8"/>
		<rect x="1049.6" y="507.3" width="23.8" height="23.8"/>
		<rect x="1087.4" y="507.3" class="st19" width="23.8" height="23.8"/>
		<rect x="1152.9" y="507.3" class="st20" width="17.9" height="23.8"/>
	</g>
	<rect x="-154.4" y="1061.6" style="clip-path:url(#SVGID_2_);fill:#808285;" width="2263.2" height="188.9"/>
	<g class="st5">
		<g>
			<rect x="875.9" y="671.5" width="15.3" height="83.9"/>
			<circle class="st21" cx="884.1" cy="638" r="46.6"/>
		</g>
		<g>
			<rect x="766.2" y="671.5" class="st11" width="15.3" height="83.9"/>
			<circle class="st18" cx="774.4" cy="638" r="46.6"/>
		</g>
	</g>
	<g class="st5">
		
			<rect x="356.5" y="177.3" transform="matrix(-1 -1.224647e-16 1.224647e-16 -1 750.5413 387.8909)" class="st11" width="37.5" height="33.2"/>
		
			<rect x="339.7" y="177.3" transform="matrix(-1 -1.224647e-16 1.224647e-16 -1 702.7598 387.8909)" class="st19" width="23.3" height="33.2"/>
		<polygon class="st21" points="375.7,167.8 394,177.3 356.7,177.3 		"/>
		<g>
			<polygon points="375.7,167.8 352.5,167.8 339.7,177.5 363.1,177.5 			"/>
		</g>
	</g>
	<g class="st5">
		
			<rect x="257.6" y="197.3" transform="matrix(-1 -1.224647e-16 1.224647e-16 -1 556.7006 439.1094)" class="st11" width="41.6" height="44.6"/>
		
			<rect x="226.3" y="197.3" transform="matrix(-1 -1.224647e-16 1.224647e-16 -1 483.8878 439.1094)" class="st19" width="31.2" height="44.6"/>
		<g>
			<polygon class="st21" points="274,183.8 299.1,197.5 249.1,197.5 			"/>
		</g>
		<polygon points="274,183.8 243.5,184 226.3,197.5 257.7,197.5 		"/>
	</g>
	<g class="st5">
		
			<rect x="135" y="237.2" transform="matrix(-1 -1.224647e-16 1.224647e-16 -1 319.5466 527.5607)" class="st11" width="49.6" height="53.1"/>
		
			<rect x="97.8" y="237.2" transform="matrix(-1 -1.224647e-16 1.224647e-16 -1 232.7289 527.5607)" class="st19" width="37.2" height="53.1"/>
		<g>
			<polygon class="st21" points="154.6,221.1 184.6,237.4 124.9,237.4 			"/>
		</g>
		<polygon points="154.6,221.1 118.2,221.4 97.8,237.4 135.2,237.4 		"/>
	</g>
	<g class="st5">
		<polygon class="st11" points="706.2,1094.8 511.8,1094.8 533.2,1071.9 727.7,1071.9 		"/>
		<polygon class="st11" points="673.5,1129.7 479.1,1129.7 500.5,1106.8 695,1106.8 		"/>
		<polygon class="st11" points="640.8,1164.5 446.4,1164.5 467.8,1141.6 662.3,1141.6 		"/>
		<polygon class="st11" points="608.1,1199.4 413.7,1199.4 435.1,1176.5 629.6,1176.5 		"/>
	</g>
</g>
</svg>
